<svg xmlns="http://www.w3.org/2000/svg" fill="none" viewBox="0 0 48 48" height="48" width="48">
    <path fill="#b67140"
        d="M40.1544 28.2629C33.1068 35.3105 20.4304 38.8457 14.7923 33.2077C9.15425 27.5696 12.6895 14.8932 19.7371 7.84562C26.7847 0.798039 34.6758 2.04805 40.3139 7.68612C45.952 13.3242 47.202 21.2153 40.1544 28.2629Z">
    </path>
    <path fill="#ffffff"
        d="M12.8596 30.249L9.8361 34.4782C9.47716 34.9802 8.75062 35.0267 8.19708 34.7538C7.71656 34.5168 7.17567 34.3837 6.60368 34.3837C4.61126 34.3837 2.99609 35.9989 2.99609 37.9913C2.99609 39.6071 4.05833 40.9748 5.52256 41.4341C6.009 41.5867 6.40828 41.9861 6.56074 42.4726C7.0198 43.9373 8.38771 45 10.0038 45C11.9962 45 13.6114 43.3848 13.6114 41.3924C13.6114 40.8222 13.4791 40.2828 13.2435 39.8034C12.9718 39.2504 13.0188 38.5256 13.5199 38.1671L17.7502 35.1403C16.6352 34.6885 15.6351 34.0507 14.7923 33.2079C13.9493 32.3649 13.3113 31.3645 12.8596 30.249Z">
    </path>
    <path stroke="#000000" stroke-linecap="round" stroke-linejoin="round" stroke-width="3"
        d="M40.1544 28.2629C33.1068 35.3105 20.4304 38.8457 14.7923 33.2077C9.15425 27.5696 12.6895 14.8932 19.7371 7.84562C26.7847 0.798039 34.6758 2.04805 40.3139 7.68612C45.952 13.3242 47.202 21.2153 40.1544 28.2629Z">
    </path>
    <path stroke="#000000" stroke-linecap="round" stroke-linejoin="round" stroke-width="3"
        d="M12.8596 30.249L9.8361 34.4782C9.47716 34.9802 8.75062 35.0267 8.19708 34.7538C7.71656 34.5168 7.17567 34.3837 6.60368 34.3837C4.61126 34.3837 2.99609 35.9989 2.99609 37.9913C2.99609 39.6071 4.05833 40.9748 5.52256 41.4341C6.009 41.5867 6.40828 41.9861 6.56074 42.4726C7.0198 43.9373 8.38771 45 10.0038 45C11.9962 45 13.6114 43.3848 13.6114 41.3924C13.6114 40.8222 13.4791 40.2828 13.2435 39.8034C12.9718 39.2504 13.0188 38.5256 13.5199 38.1671L17.7502 35.1403">
    </path>
    <path stroke="#000000" stroke-linecap="round" stroke-linejoin="round" stroke-width="3"
        d="M34.2101 25.5449C30.9689 28.7862 25.6598 30.7371 22 29.7365"></path>
</svg>